# xmcd
#
# Track frame offsets:
#	150
#	20240
#	39642
#	65740
#	81900
#	103446
#	123563
#	139717
#	162996
#	184132
#	206061
#	221226
#	233987
#	252686
#	276657
#
# Disc length: 4219 seconds
# Revision: 0
# Processed by: cddbd v1.5.2PL0 Copyright (c) Steve Scherf et al.
# Submitted via: dBpowerAMP V12.0
#
DISCID=0010790f
DTITLE=Various Artist - Blues Harp Women - CD 1
DYEAR=2015
DGENRE=Blues
TTITLE0=Paula Rangell - Harmonica Girl
TTITLE1=Roxy Perry - Roadmaster
TTITLE2=Stacy Jones Band - Heavy Water
TTITLE3=Big Mama Thornton - Down Home Shakedown
TTITLE4=LynnAnn Hyde - 32-20 Blues
TTITLE5=Trina Hamlin - Down To The Hollow
TTITLE6=Tracy K - Stop! Wait A Minute
TTITLE7=Teresa "T-Bird" Lynne - One More Lie
TTITLE8=Octavia - Naughty Girl
TTITLE9=Kat Baloun - Why You So Mean To Me
TTITLE10=Beth Konen - Ain't Easy
TTITLE11=Jane Gillman - Stuck On You
TTITLE12=Zola Moon - Mechanical Beast
TTITLE13=Mattie Phifer - Please Call Daddy
TTITLE14=Dorothy Jane Gosper - Sadder Than Sad
EXTD=
EXTT0=
EXTT1=
EXTT2=
EXTT3=
EXTT4=
EXTT5=
EXTT6=
EXTT7=
EXTT8=
EXTT9=
EXTT10=
EXTT11=
EXTT12=
EXTT13=
EXTT14=
PLAYORDER=
